<mxfile host="app.diagrams.net" agent="Mozilla/5.0 (Macintosh; Intel Mac OS X 10_15_7) AppleWebKit/537.36 (KHTML, like Gecko) Chrome/139.0.0.0 Safari/537.36" version="28.1.2">
  <diagram name="Страница — 1" id="j2LrrgSGsXx05MhXZqLG">
    <mxGraphModel dx="1952" dy="2108" grid="1" gridSize="10" guides="1" tooltips="1" connect="1" arrows="1" fold="1" page="1" pageScale="1" pageWidth="1100" pageHeight="850" math="0" shadow="0">
      <root>
        <mxCell id="0" />
        <mxCell id="1" parent="0" />
        <mxCell id="ph01uLmYoId5l7dZ_dLc-10" value="Data Stack" style="rounded=0;whiteSpace=wrap;html=1;fillColor=none;" parent="1" vertex="1">
          <mxGeometry x="720" y="40" width="120" height="120" as="geometry" />
        </mxCell>
        <mxCell id="ph01uLmYoId5l7dZ_dLc-28" style="edgeStyle=orthogonalEdgeStyle;rounded=0;orthogonalLoop=1;jettySize=auto;html=1;exitX=0.5;exitY=1;exitDx=0;exitDy=0;entryX=0.609;entryY=-0.008;entryDx=0;entryDy=0;entryPerimeter=0;" parent="1" source="ph01uLmYoId5l7dZ_dLc-16" target="ph01uLmYoId5l7dZ_dLc-12" edge="1">
          <mxGeometry relative="1" as="geometry">
            <Array as="points">
              <mxPoint x="817" y="160" />
              <mxPoint x="817" y="340" />
              <mxPoint x="817" y="340" />
            </Array>
            <mxPoint x="828" y="290" as="sourcePoint" />
          </mxGeometry>
        </mxCell>
        <mxCell id="ph01uLmYoId5l7dZ_dLc-14" value="" style="group" parent="1" vertex="1" connectable="0">
          <mxGeometry x="768" y="319.5" width="80" height="75" as="geometry" />
        </mxCell>
        <mxCell id="ph01uLmYoId5l7dZ_dLc-12" value="ALU" style="shape=offPageConnector;whiteSpace=wrap;html=1;fillColor=none;" parent="ph01uLmYoId5l7dZ_dLc-14" vertex="1">
          <mxGeometry y="30" width="80" height="45" as="geometry" />
        </mxCell>
        <mxCell id="ph01uLmYoId5l7dZ_dLc-13" value="C" style="rounded=0;whiteSpace=wrap;html=1;fillColor=none;" parent="ph01uLmYoId5l7dZ_dLc-14" vertex="1">
          <mxGeometry y="30" width="20" height="20" as="geometry" />
        </mxCell>
        <mxCell id="ph01uLmYoId5l7dZ_dLc-43" style="edgeStyle=orthogonalEdgeStyle;rounded=0;orthogonalLoop=1;jettySize=auto;html=1;startArrow=none;startFill=0;exitX=1;exitY=0.25;exitDx=0;exitDy=0;" parent="1" edge="1" source="ph01uLmYoId5l7dZ_dLc-15">
          <mxGeometry relative="1" as="geometry">
            <mxPoint x="670" y="239" as="sourcePoint" />
            <mxPoint x="890" y="70" as="targetPoint" />
            <Array as="points">
              <mxPoint x="670" y="245" />
              <mxPoint x="670" y="-40" />
              <mxPoint x="920" y="-40" />
              <mxPoint x="920" y="70" />
            </Array>
          </mxGeometry>
        </mxCell>
        <mxCell id="ph01uLmYoId5l7dZ_dLc-15" value="Data Memory" style="whiteSpace=wrap;html=1;aspect=fixed;fillColor=none;" parent="1" vertex="1">
          <mxGeometry x="400" y="200" width="180" height="180" as="geometry" />
        </mxCell>
        <mxCell id="ph01uLmYoId5l7dZ_dLc-16" value="S" style="rounded=0;whiteSpace=wrap;html=1;fillColor=none;" parent="1" vertex="1">
          <mxGeometry x="800" y="130" width="30" height="30" as="geometry" />
        </mxCell>
        <mxCell id="ph01uLmYoId5l7dZ_dLc-17" value="T" style="rounded=0;whiteSpace=wrap;html=1;fillColor=none;" parent="1" vertex="1">
          <mxGeometry x="751" y="130" width="35" height="30" as="geometry" />
        </mxCell>
        <mxCell id="ph01uLmYoId5l7dZ_dLc-19" value="" style="endArrow=classic;html=1;rounded=0;entryX=0.5;entryY=0;entryDx=0;entryDy=0;dashed=1;" parent="1" edge="1">
          <mxGeometry width="50" height="50" relative="1" as="geometry">
            <mxPoint x="760" as="sourcePoint" />
            <mxPoint x="760" y="40" as="targetPoint" />
          </mxGeometry>
        </mxCell>
        <mxCell id="ph01uLmYoId5l7dZ_dLc-20" value="" style="endArrow=classic;html=1;rounded=0;entryX=0.75;entryY=0;entryDx=0;entryDy=0;dashed=1;" parent="1" edge="1">
          <mxGeometry width="50" height="50" relative="1" as="geometry">
            <mxPoint x="804" as="sourcePoint" />
            <mxPoint x="804" y="40" as="targetPoint" />
          </mxGeometry>
        </mxCell>
        <mxCell id="ph01uLmYoId5l7dZ_dLc-21" value="data_push" style="text;html=1;align=center;verticalAlign=middle;resizable=0;points=[];autosize=1;strokeColor=none;fillColor=none;" parent="1" vertex="1">
          <mxGeometry x="809" width="80" height="30" as="geometry" />
        </mxCell>
        <mxCell id="ph01uLmYoId5l7dZ_dLc-22" value="data_pop" style="text;html=1;align=center;verticalAlign=middle;resizable=0;points=[];autosize=1;strokeColor=none;fillColor=none;rotation=0;" parent="1" vertex="1">
          <mxGeometry x="690" width="70" height="30" as="geometry" />
        </mxCell>
        <mxCell id="ph01uLmYoId5l7dZ_dLc-29" style="edgeStyle=orthogonalEdgeStyle;rounded=0;orthogonalLoop=1;jettySize=auto;html=1;exitX=0.5;exitY=1;exitDx=0;exitDy=0;" parent="1" source="ph01uLmYoId5l7dZ_dLc-12" edge="1">
          <mxGeometry relative="1" as="geometry">
            <mxPoint x="890" y="130" as="targetPoint" />
            <Array as="points">
              <mxPoint x="819" y="415" />
              <mxPoint x="910" y="415" />
              <mxPoint x="910" y="130" />
            </Array>
          </mxGeometry>
        </mxCell>
        <mxCell id="ph01uLmYoId5l7dZ_dLc-30" value="result" style="edgeLabel;html=1;align=center;verticalAlign=middle;resizable=0;points=[];" parent="ph01uLmYoId5l7dZ_dLc-29" vertex="1" connectable="0">
          <mxGeometry x="0.0613" y="2" relative="1" as="geometry">
            <mxPoint as="offset" />
          </mxGeometry>
        </mxCell>
        <mxCell id="ph01uLmYoId5l7dZ_dLc-33" value="AR" style="rounded=0;whiteSpace=wrap;html=1;fillColor=none;" parent="1" vertex="1">
          <mxGeometry x="290" y="280" width="70" height="40" as="geometry" />
        </mxCell>
        <mxCell id="ph01uLmYoId5l7dZ_dLc-34" style="edgeStyle=orthogonalEdgeStyle;rounded=0;orthogonalLoop=1;jettySize=auto;html=1;exitX=1;exitY=0.5;exitDx=0;exitDy=0;entryX=0.022;entryY=0.556;entryDx=0;entryDy=0;entryPerimeter=0;" parent="1" source="ph01uLmYoId5l7dZ_dLc-33" target="ph01uLmYoId5l7dZ_dLc-15" edge="1">
          <mxGeometry relative="1" as="geometry" />
        </mxCell>
        <mxCell id="ph01uLmYoId5l7dZ_dLc-58" value="adress" style="edgeLabel;html=1;align=center;verticalAlign=middle;resizable=0;points=[];" parent="ph01uLmYoId5l7dZ_dLc-34" vertex="1" connectable="0">
          <mxGeometry x="-0.0868" y="-2" relative="1" as="geometry">
            <mxPoint x="-2" y="6" as="offset" />
          </mxGeometry>
        </mxCell>
        <mxCell id="ph01uLmYoId5l7dZ_dLc-45" style="edgeStyle=orthogonalEdgeStyle;rounded=0;orthogonalLoop=1;jettySize=auto;html=1;exitX=0.5;exitY=0;exitDx=0;exitDy=0;entryX=0;entryY=0.5;entryDx=0;entryDy=0;" parent="1" source="ph01uLmYoId5l7dZ_dLc-44" target="ph01uLmYoId5l7dZ_dLc-33" edge="1">
          <mxGeometry relative="1" as="geometry" />
        </mxCell>
        <mxCell id="ph01uLmYoId5l7dZ_dLc-44" value="&lt;div&gt;jrs&lt;/div&gt;MUX" style="shape=trapezoid;perimeter=trapezoidPerimeter;whiteSpace=wrap;html=1;fixedSize=1;fillColor=none;direction=south;" parent="1" vertex="1">
          <mxGeometry x="220" y="260" width="40" height="80" as="geometry" />
        </mxCell>
        <mxCell id="ph01uLmYoId5l7dZ_dLc-46" value="sel" style="text;html=1;align=center;verticalAlign=middle;resizable=0;points=[];autosize=1;strokeColor=none;fillColor=none;" parent="1" vertex="1">
          <mxGeometry x="231" y="350" width="40" height="30" as="geometry" />
        </mxCell>
        <mxCell id="ph01uLmYoId5l7dZ_dLc-47" value="" style="endArrow=classic;html=1;rounded=0;entryX=1;entryY=0.25;entryDx=0;entryDy=0;exitX=0.375;exitY=0.133;exitDx=0;exitDy=0;exitPerimeter=0;dashed=1;" parent="1" source="ph01uLmYoId5l7dZ_dLc-46" target="ph01uLmYoId5l7dZ_dLc-44" edge="1">
          <mxGeometry width="50" height="50" relative="1" as="geometry">
            <mxPoint x="250" y="360" as="sourcePoint" />
            <mxPoint x="300" y="310" as="targetPoint" />
          </mxGeometry>
        </mxCell>
        <mxCell id="ph01uLmYoId5l7dZ_dLc-49" style="edgeStyle=orthogonalEdgeStyle;rounded=0;orthogonalLoop=1;jettySize=auto;html=1;exitX=0;exitY=0.5;exitDx=0;exitDy=0;entryX=0.75;entryY=1;entryDx=0;entryDy=0;" parent="1" source="ph01uLmYoId5l7dZ_dLc-48" target="ph01uLmYoId5l7dZ_dLc-44" edge="1">
          <mxGeometry relative="1" as="geometry">
            <mxPoint x="220" y="300" as="targetPoint" />
            <Array as="points">
              <mxPoint x="200" y="538" />
              <mxPoint x="200" y="320" />
            </Array>
          </mxGeometry>
        </mxCell>
        <mxCell id="ph01uLmYoId5l7dZ_dLc-90" style="edgeStyle=orthogonalEdgeStyle;rounded=0;orthogonalLoop=1;jettySize=auto;html=1;exitX=1;exitY=0.75;exitDx=0;exitDy=0;entryX=0.75;entryY=1;entryDx=0;entryDy=0;" parent="1" edge="1">
          <mxGeometry relative="1" as="geometry">
            <mxPoint x="889" y="88" as="targetPoint" />
            <mxPoint x="580" y="566" as="sourcePoint" />
            <Array as="points">
              <mxPoint x="580" y="570" />
              <mxPoint x="1030" y="570" />
              <mxPoint x="1030" y="88" />
            </Array>
          </mxGeometry>
        </mxCell>
        <mxCell id="ph01uLmYoId5l7dZ_dLc-48" value="Control Unit" style="rounded=0;whiteSpace=wrap;html=1;fillColor=none;" parent="1" vertex="1">
          <mxGeometry x="400" y="498" width="180" height="80" as="geometry" />
        </mxCell>
        <mxCell id="ph01uLmYoId5l7dZ_dLc-77" style="edgeStyle=orthogonalEdgeStyle;rounded=0;orthogonalLoop=1;jettySize=auto;html=1;exitX=1;exitY=0.75;exitDx=0;exitDy=0;" parent="1" source="ph01uLmYoId5l7dZ_dLc-50" edge="1">
          <mxGeometry relative="1" as="geometry">
            <mxPoint x="840" y="471" as="targetPoint" />
            <Array as="points">
              <mxPoint x="838" y="470" />
            </Array>
          </mxGeometry>
        </mxCell>
        <mxCell id="0Ebu1gB2lMmuUdV_STJC-7" value="data_out" style="edgeLabel;html=1;align=center;verticalAlign=middle;resizable=0;points=[];" vertex="1" connectable="0" parent="ph01uLmYoId5l7dZ_dLc-77">
          <mxGeometry x="-0.2615" relative="1" as="geometry">
            <mxPoint x="4" y="10" as="offset" />
          </mxGeometry>
        </mxCell>
        <mxCell id="ph01uLmYoId5l7dZ_dLc-78" style="edgeStyle=orthogonalEdgeStyle;rounded=0;orthogonalLoop=1;jettySize=auto;html=1;exitX=1;exitY=0.25;exitDx=0;exitDy=0;" parent="1" edge="1">
          <mxGeometry relative="1" as="geometry">
            <mxPoint x="890" y="107" as="targetPoint" />
            <mxPoint x="770.5" y="457" as="sourcePoint" />
            <Array as="points">
              <mxPoint x="771" y="450" />
              <mxPoint x="960" y="450" />
              <mxPoint x="960" y="107" />
            </Array>
          </mxGeometry>
        </mxCell>
        <mxCell id="ph01uLmYoId5l7dZ_dLc-50" value="IO" style="rounded=0;whiteSpace=wrap;html=1;fillColor=none;" parent="1" vertex="1">
          <mxGeometry x="709.5" y="440" width="61" height="40" as="geometry" />
        </mxCell>
        <mxCell id="ph01uLmYoId5l7dZ_dLc-75" style="edgeStyle=orthogonalEdgeStyle;rounded=0;orthogonalLoop=1;jettySize=auto;html=1;exitX=0;exitY=0.75;exitDx=0;exitDy=0;entryX=1;entryY=0.388;entryDx=0;entryDy=0;entryPerimeter=0;" parent="1" source="ph01uLmYoId5l7dZ_dLc-51" target="ph01uLmYoId5l7dZ_dLc-48" edge="1">
          <mxGeometry relative="1" as="geometry" />
        </mxCell>
        <mxCell id="0Ebu1gB2lMmuUdV_STJC-4" value="intreq" style="edgeLabel;html=1;align=center;verticalAlign=middle;resizable=0;points=[];" vertex="1" connectable="0" parent="ph01uLmYoId5l7dZ_dLc-75">
          <mxGeometry x="0.0008" relative="1" as="geometry">
            <mxPoint as="offset" />
          </mxGeometry>
        </mxCell>
        <mxCell id="ph01uLmYoId5l7dZ_dLc-87" style="edgeStyle=orthogonalEdgeStyle;rounded=0;orthogonalLoop=1;jettySize=auto;html=1;exitX=0;exitY=0.5;exitDx=0;exitDy=0;entryX=0.75;entryY=1;entryDx=0;entryDy=0;" parent="1" source="ph01uLmYoId5l7dZ_dLc-51" target="ph01uLmYoId5l7dZ_dLc-68" edge="1">
          <mxGeometry relative="1" as="geometry">
            <Array as="points">
              <mxPoint x="620" y="508" />
              <mxPoint x="620" y="354" />
            </Array>
          </mxGeometry>
        </mxCell>
        <mxCell id="0Ebu1gB2lMmuUdV_STJC-6" value="data_in" style="edgeLabel;html=1;align=center;verticalAlign=middle;resizable=0;points=[];" vertex="1" connectable="0" parent="ph01uLmYoId5l7dZ_dLc-87">
          <mxGeometry x="0.3501" y="3" relative="1" as="geometry">
            <mxPoint as="offset" />
          </mxGeometry>
        </mxCell>
        <mxCell id="ph01uLmYoId5l7dZ_dLc-51" value="IO Devices" style="rounded=0;whiteSpace=wrap;html=1;fillColor=none;" parent="1" vertex="1">
          <mxGeometry x="840" y="465" width="120" height="85" as="geometry" />
        </mxCell>
        <mxCell id="ph01uLmYoId5l7dZ_dLc-59" value="" style="edgeStyle=none;orthogonalLoop=1;jettySize=auto;html=1;rounded=0;entryX=0.5;entryY=1;entryDx=0;entryDy=0;dashed=1;" parent="1" target="ph01uLmYoId5l7dZ_dLc-33" edge="1">
          <mxGeometry width="100" relative="1" as="geometry">
            <mxPoint x="325" y="350" as="sourcePoint" />
            <mxPoint x="370" y="350" as="targetPoint" />
            <Array as="points" />
          </mxGeometry>
        </mxCell>
        <mxCell id="ph01uLmYoId5l7dZ_dLc-60" value="latch_ar" style="text;html=1;align=center;verticalAlign=middle;resizable=0;points=[];autosize=1;strokeColor=none;fillColor=none;" parent="1" vertex="1">
          <mxGeometry x="292" y="342" width="70" height="30" as="geometry" />
        </mxCell>
        <mxCell id="ph01uLmYoId5l7dZ_dLc-63" value="" style="edgeStyle=none;orthogonalLoop=1;jettySize=auto;html=1;rounded=0;dashed=1;" parent="1" edge="1">
          <mxGeometry width="100" relative="1" as="geometry">
            <mxPoint x="360" y="220" as="sourcePoint" />
            <mxPoint x="400" y="220" as="targetPoint" />
            <Array as="points" />
          </mxGeometry>
        </mxCell>
        <mxCell id="ph01uLmYoId5l7dZ_dLc-65" value="dm_read" style="text;html=1;align=center;verticalAlign=middle;resizable=0;points=[];autosize=1;strokeColor=none;fillColor=none;" parent="1" vertex="1">
          <mxGeometry x="297" y="203" width="70" height="30" as="geometry" />
        </mxCell>
        <mxCell id="ph01uLmYoId5l7dZ_dLc-66" value="" style="edgeStyle=none;orthogonalLoop=1;jettySize=auto;html=1;rounded=0;dashed=1;entryX=0;entryY=0.25;entryDx=0;entryDy=0;" parent="1" target="ph01uLmYoId5l7dZ_dLc-15" edge="1">
          <mxGeometry width="100" relative="1" as="geometry">
            <mxPoint x="360" y="245" as="sourcePoint" />
            <mxPoint x="420" y="220" as="targetPoint" />
            <Array as="points" />
          </mxGeometry>
        </mxCell>
        <mxCell id="ph01uLmYoId5l7dZ_dLc-67" value="dm_write" style="text;html=1;align=center;verticalAlign=middle;resizable=0;points=[];autosize=1;strokeColor=none;fillColor=none;" parent="1" vertex="1">
          <mxGeometry x="297" y="230" width="70" height="30" as="geometry" />
        </mxCell>
        <mxCell id="ph01uLmYoId5l7dZ_dLc-73" style="edgeStyle=orthogonalEdgeStyle;rounded=0;orthogonalLoop=1;jettySize=auto;html=1;entryX=0.5;entryY=0;entryDx=0;entryDy=0;exitX=0.5;exitY=0;exitDx=0;exitDy=0;" parent="1" source="ph01uLmYoId5l7dZ_dLc-68" target="ph01uLmYoId5l7dZ_dLc-50" edge="1">
          <mxGeometry relative="1" as="geometry">
            <Array as="points">
              <mxPoint x="740" y="337" />
            </Array>
          </mxGeometry>
        </mxCell>
        <mxCell id="ph01uLmYoId5l7dZ_dLc-68" value="IO MUX" style="shape=trapezoid;perimeter=trapezoidPerimeter;whiteSpace=wrap;html=1;fixedSize=1;fillColor=none;direction=south;" parent="1" vertex="1">
          <mxGeometry x="704" y="302" width="30" height="70" as="geometry" />
        </mxCell>
        <mxCell id="ph01uLmYoId5l7dZ_dLc-74" value="" style="edgeStyle=orthogonalEdgeStyle;orthogonalLoop=1;jettySize=auto;html=1;rounded=0;entryX=0.25;entryY=1;entryDx=0;entryDy=0;jumpStyle=arc;jumpSize=13;startArrow=none;startFill=0;exitX=0.5;exitY=1;exitDx=0;exitDy=0;" parent="1" source="ph01uLmYoId5l7dZ_dLc-17" target="ph01uLmYoId5l7dZ_dLc-68" edge="1">
          <mxGeometry width="100" relative="1" as="geometry">
            <mxPoint x="770" y="190" as="sourcePoint" />
            <mxPoint x="750" y="220" as="targetPoint" />
            <Array as="points">
              <mxPoint x="769" y="200" />
              <mxPoint x="684" y="200" />
              <mxPoint x="684" y="320" />
            </Array>
          </mxGeometry>
        </mxCell>
        <mxCell id="ph01uLmYoId5l7dZ_dLc-76" style="edgeStyle=orthogonalEdgeStyle;rounded=0;orthogonalLoop=1;jettySize=auto;html=1;exitX=1;exitY=0.75;exitDx=0;exitDy=0;entryX=0.643;entryY=0.967;entryDx=0;entryDy=0;entryPerimeter=0;" parent="1" edge="1">
          <mxGeometry relative="1" as="geometry">
            <mxPoint x="580" y="328" as="sourcePoint" />
            <mxPoint x="705.99" y="340.01" as="targetPoint" />
            <Array as="points">
              <mxPoint x="580" y="340" />
            </Array>
          </mxGeometry>
        </mxCell>
        <mxCell id="ph01uLmYoId5l7dZ_dLc-79" value="" style="edgeStyle=none;orthogonalLoop=1;jettySize=auto;html=1;rounded=0;dashed=1;" parent="1" edge="1">
          <mxGeometry width="100" relative="1" as="geometry">
            <mxPoint x="680" y="473" as="sourcePoint" />
            <mxPoint x="710" y="473" as="targetPoint" />
            <Array as="points" />
          </mxGeometry>
        </mxCell>
        <mxCell id="ph01uLmYoId5l7dZ_dLc-80" value="latch_io" style="text;html=1;align=center;verticalAlign=middle;resizable=0;points=[];autosize=1;strokeColor=none;fillColor=none;" parent="1" vertex="1">
          <mxGeometry x="625" y="457" width="60" height="30" as="geometry" />
        </mxCell>
        <mxCell id="ph01uLmYoId5l7dZ_dLc-82" style="edgeStyle=orthogonalEdgeStyle;rounded=0;orthogonalLoop=1;jettySize=auto;html=1;exitX=0.5;exitY=0;exitDx=0;exitDy=0;entryX=1;entryY=0.5;entryDx=0;entryDy=0;" parent="1" source="ph01uLmYoId5l7dZ_dLc-81" target="ph01uLmYoId5l7dZ_dLc-10" edge="1">
          <mxGeometry relative="1" as="geometry" />
        </mxCell>
        <mxCell id="ph01uLmYoId5l7dZ_dLc-81" value="MUX" style="shape=trapezoid;perimeter=trapezoidPerimeter;whiteSpace=wrap;html=1;fixedSize=1;direction=north;fillColor=none;" parent="1" vertex="1">
          <mxGeometry x="859" y="60" width="30" height="80" as="geometry" />
        </mxCell>
        <mxCell id="ph01uLmYoId5l7dZ_dLc-84" style="edgeStyle=orthogonalEdgeStyle;rounded=0;orthogonalLoop=1;jettySize=auto;html=1;entryX=1;entryY=0.75;entryDx=0;entryDy=0;dashed=1;" parent="1" source="ph01uLmYoId5l7dZ_dLc-83" target="ph01uLmYoId5l7dZ_dLc-68" edge="1">
          <mxGeometry relative="1" as="geometry" />
        </mxCell>
        <mxCell id="ph01uLmYoId5l7dZ_dLc-83" value="sel" style="text;html=1;align=center;verticalAlign=middle;resizable=0;points=[];autosize=1;strokeColor=none;fillColor=none;" parent="1" vertex="1">
          <mxGeometry x="693" y="395" width="40" height="30" as="geometry" />
        </mxCell>
        <mxCell id="ph01uLmYoId5l7dZ_dLc-86" style="edgeStyle=orthogonalEdgeStyle;rounded=0;orthogonalLoop=1;jettySize=auto;html=1;entryX=0;entryY=0.5;entryDx=0;entryDy=0;dashed=1;" parent="1" source="ph01uLmYoId5l7dZ_dLc-85" target="ph01uLmYoId5l7dZ_dLc-81" edge="1">
          <mxGeometry relative="1" as="geometry" />
        </mxCell>
        <mxCell id="ph01uLmYoId5l7dZ_dLc-85" value="sel" style="text;html=1;align=center;verticalAlign=middle;resizable=0;points=[];autosize=1;strokeColor=none;fillColor=none;" parent="1" vertex="1">
          <mxGeometry x="854" y="153" width="40" height="30" as="geometry" />
        </mxCell>
        <mxCell id="ph01uLmYoId5l7dZ_dLc-91" value="" style="edgeStyle=orthogonalEdgeStyle;orthogonalLoop=1;jettySize=auto;html=1;rounded=0;exitX=0.25;exitY=1;exitDx=0;exitDy=0;entryX=0.25;entryY=1;entryDx=0;entryDy=0;jumpStyle=arc;jumpSize=12;" parent="1" source="ph01uLmYoId5l7dZ_dLc-17" edge="1" target="ph01uLmYoId5l7dZ_dLc-44">
          <mxGeometry width="100" relative="1" as="geometry">
            <mxPoint x="700" y="180" as="sourcePoint" />
            <mxPoint x="490" y="160" as="targetPoint" />
            <Array as="points">
              <mxPoint x="760" y="170" />
              <mxPoint x="200" y="170" />
              <mxPoint x="200" y="280" />
            </Array>
          </mxGeometry>
        </mxCell>
        <mxCell id="0Ebu1gB2lMmuUdV_STJC-1" value="" style="endArrow=classic;html=1;rounded=0;entryX=0.5;entryY=0;entryDx=0;entryDy=0;startArrow=oval;startFill=1;" edge="1" parent="1" target="ph01uLmYoId5l7dZ_dLc-15">
          <mxGeometry width="50" height="50" relative="1" as="geometry">
            <mxPoint x="490" y="170" as="sourcePoint" />
            <mxPoint x="670" y="230" as="targetPoint" />
          </mxGeometry>
        </mxCell>
        <mxCell id="0Ebu1gB2lMmuUdV_STJC-2" value="" style="endArrow=classic;html=1;rounded=0;edgeStyle=orthogonalEdgeStyle;startArrow=oval;startFill=1;entryX=0.5;entryY=0;entryDx=0;entryDy=0;" edge="1" parent="1" target="ph01uLmYoId5l7dZ_dLc-13">
          <mxGeometry width="50" height="50" relative="1" as="geometry">
            <mxPoint x="770" y="200" as="sourcePoint" />
            <mxPoint x="790" y="330" as="targetPoint" />
            <Array as="points">
              <mxPoint x="778" y="200" />
              <mxPoint x="778" y="275" />
              <mxPoint x="779" y="275" />
              <mxPoint x="779" y="350" />
            </Array>
          </mxGeometry>
        </mxCell>
      </root>
    </mxGraphModel>
  </diagram>
</mxfile>
